<svg id="Layer_3" enable-background="new 0 0 64 64" height="512" viewBox="0 0 64 64" width="512" xmlns="http://www.w3.org/2000/svg"><path d="m6 46h32v4h-32z" fill="#f4b2b0"/><path d="m62 25v-6h-4.291c-.415-2.187-1.268-4.217-2.476-5.991l3.03-3.03-4.243-4.243-3.03 3.03c-1.773-1.207-3.803-2.06-5.99-2.475v-4.291h-6v4.291c-2.187.415-4.217 1.268-5.991 2.476l-3.03-3.03-4.243 4.243v.02h16.264c6.627 0 12 5.373 12 12s-5.373 12-12 12v8h3v-4.291c2.187-.415 4.217-1.268 5.991-2.476l3.03 3.03 4.243-4.243-3.03-3.03c1.207-1.774 2.06-3.804 2.476-5.991h4.29z" fill="#f4b2b0"/><g fill="#b3404a"><path d="m6 43h32c.553 0 1-.448 1-1v-28c0-.552-.447-1-1-1h-32c-.553 0-1 .448-1 1v28c0 .552.447 1 1 1zm1-9.92c3.386.488 6 3.401 6 6.92v1h-6zm30-10.08h-2v2h2v6h-2v2h2v8h-8v-2h-2v2h-6v-2h-2v2h-4v-1c0-4.624-3.507-8.442-8-8.941v-2.059h2v-2h-2v-2h1c5.728 0 10.442-4.402 10.949-10h8.051v2h2v-2h8zm-20.059-8c-.499 4.493-4.316 8-8.941 8h-1v-8z"/><path d="m27 19h2v2h-2z"/><path d="m27 23h2v2h-2z"/><path d="m31 23h2v2h-2z"/><path d="m27 35h2v2h-2z"/><path d="m27 31h2v2h-2z"/><path d="m31 31h2v2h-2z"/><path d="m19 35h2v2h-2z"/><path d="m19 31h2v2h-2z"/><path d="m19 27h2v2h-2z"/><path d="m15 27h2v2h-2z"/><path d="m11 27h2v2h-2z"/><path d="m6 51h32c.553 0 1-.448 1-1v-4c0-.552-.447-1-1-1h-32c-.553 0-1 .448-1 1v4c0 .552.447 1 1 1zm1-4h30v2h-30z"/><path d="m5 53h34v2h-34z"/><path d="m5 57h34v2h-34z"/><path d="m62 26c.553 0 1-.448 1-1v-6c0-.552-.447-1-1-1h-3.483c-.413-1.725-1.086-3.352-2.005-4.855l2.459-2.459c.188-.188.293-.442.293-.707s-.105-.52-.293-.707l-4.243-4.243c-.376-.375-1.04-.375-1.414 0l-2.459 2.459c-1.504-.919-3.131-1.591-4.855-2.005v-3.483c0-.552-.447-1-1-1h-6c-.553 0-1 .448-1 1v3.483c-1.724.414-3.351 1.085-4.854 2.005l-2.459-2.459c-.188-.188-.441-.293-.707-.293s-.52.105-.707.293l-3.972 3.971h-23.301c-.553 0-1 .448-1 1v52c0 .552.447 1 1 1h40c.553 0 1-.448 1-1v-1h11c.12 0 .239-.021.352-.063l8-3c.389-.147.648-.52.648-.937s-.259-.79-.648-.937l-5.503-2.063 5.503-2.063c.389-.147.648-.52.648-.937s-.259-.79-.648-.937l-8-3c-.113-.042-.232-.063-.352-.063h-11v-4h2c.553 0 1-.448 1-1v-3.483c1.724-.414 3.351-1.085 4.854-2.005l2.459 2.459c.188.188.441.293.707.293s.52-.105.707-.293l4.243-4.243c.188-.188.293-.442.293-.707s-.105-.52-.293-.707l-2.459-2.459c.919-1.503 1.592-3.13 2.005-4.855zm-32.021-18.85 1.849 1.85h-3.698zm11.021 53.85h-38v-50h38zm2-6h10v4h-10zm12 3.557v-3.114l4.152 1.557zm0-6v-3.114l4.152 1.557zm-2-3.557v4h-10v-4zm-10-37.949c5.598.507 10 5.221 10 10.949s-4.402 10.442-10 10.949zm13.727 13.762c-.386 2.032-1.166 3.921-2.319 5.615-.271.397-.221.931.119 1.27l2.323 2.323-2.829 2.829-2.322-2.323c-.34-.339-.873-.389-1.27-.12-1.696 1.154-3.585 1.935-5.615 2.32-.472.089-.814.502-.814.982v3.291h-1v-6.051c6.701-.514 12-6.118 12-12.949 0-7.168-5.832-13-13-13h-7.453c1.437-.825 2.988-1.413 4.64-1.727.471-.089.813-.502.813-.982v-3.291h4v3.291c0 .48.342.893.813.982 2.03.385 3.919 1.166 5.615 2.32.397.271.93.221 1.27-.12l2.322-2.323 2.829 2.829-2.323 2.323c-.34.339-.39.873-.119 1.27 1.153 1.694 1.934 3.583 2.319 5.615.09.471.503.813.983.813h3.291v4h-3.291c-.48 0-.893.342-.982.813z"/></g></svg>